<?xml version="1.0" encoding="utf-8"?>
<!-- Generator: Adobe Illustrator 25.2.1, SVG Export Plug-In . SVG Version: 6.00 Build 0)  -->
<svg version="1.1" id="Layer_1" xmlns="http://www.w3.org/2000/svg" xmlns:xlink="http://www.w3.org/1999/xlink" x="0px" y="0px"
	 viewBox="0 0 1920 780" style="enable-background:new 0 0 1920 780;" xml:space="preserve">
<style type="text/css">
	.st0{fill:#BFE1E8;}
</style>
<path class="st0" d="M1858.54,220.36c-27.89-2.36-55.68-5.49-83.41-9.17c-53.12-7.04-105.94-16.01-158.53-26.26
	c-74.75-14.56-148.95-31.59-222.89-49.77c-59.18-14.55-118.29-29.4-177.35-44.41c-67.13-17.07-134.45-33.33-201.93-48.94
	c-47.53-10.99-95.07-21.79-143.32-29.35C822.4,4.82,773.48,0.45,724.16,0.48c-0.01-0.16-0.01-0.32-0.02-0.48c-2.56,0-5.12,0-7.68,0
	c-3.52,0-7.04,0-10.56,0c-2.56,0-5.12,0-7.68,0c0,0,0,0,0,0c0,0,0,0,0,0h-24.96h0c-2.56,0-5.12,0-7.68,0c-3.52,0-7.04,0-10.56,0
	c-2.56,0-5.12,0-7.68,0c-0.01,0.16-0.01,0.31-0.02,0.47c-8.75-0.21-17.48,0.45-26.22,0.59c-9.25,0.15-18.53,0.32-27.76,0.9
	c-23.86,1.5-47.55,4.68-71.14,8.45c-59.35,9.46-117.46,23.9-174.16,43.95c-52.72,18.65-103.63,41.26-152.75,67.99
	c-46.29,25.19-90.61,53.42-133.14,84.47C40.97,222.29,20.23,238.31,0,254.97V780h1920V224.63
	C1899.49,223.45,1879.01,222.1,1858.54,220.36z"/>
</svg>
