<?xml version="1.0" encoding="utf-8"?>
<!-- Generator: Adobe Illustrator 25.2.1, SVG Export Plug-In . SVG Version: 6.00 Build 0)  -->
<svg version="1.1" id="Layer_1" xmlns="http://www.w3.org/2000/svg" xmlns:xlink="http://www.w3.org/1999/xlink" x="0px" y="0px"
	 viewBox="0 0 318.91 288.41" style="enable-background:new 0 0 318.91 288.41;" xml:space="preserve">
<style type="text/css">
	.st0{fill:#FFFFFF;}
</style>
<g>
	<path class="st0" d="M207.23,158.59c25.61,0.43,46.6-19.72,47.02-45.13c0.42-25.26-20.22-45.72-46.52-46.13
		c-26.14-0.41-46.83,19.68-47.21,45.84C160.15,137.99,180.88,158.15,207.23,158.59z"/>
	<path class="st0" d="M47.8,0C36.48-0.08,27.97,8.68,27.89,20.5c-0.08,12.23,8.19,20.82,20.15,20.93
		c11.03,0.1,20.46-9.16,20.57-20.21C68.74,9.65,59.36,0.09,47.8,0z"/>
	<path class="st0" d="M107.98,45.38c0.08-7.95-6.1-13.39-15.21-13.41c-8.56-0.01-15.39,6.36-15.42,14.39
		c-0.04,9.64,6.34,16,16.09,16.07C102.07,62.49,107.88,55.68,107.98,45.38z"/>
	<path class="st0" d="M63.99,71.11c-1.4-0.73-2.65-1.76-3.99-2.63c-6.07-3.93-9.49-3.37-13.94,2.34c-0.88,1.13-1.68,2.38-2.23,3.7
		c-2.53,6.13,1.83,12.4,8.41,11.79c2.26-0.21,4.57-1.31,6.55-2.5c2.27-1.37,4.28-3.22,6.26-5.01c0.84-0.76,1.34-1.9,2-2.86
		c-0.21-0.1-0.41-0.2-0.62-0.29C66.95,73.37,65.86,72.08,63.99,71.11z"/>
	<path class="st0" d="M105.94,136.58c3.42-2.72,6.69-5.63,10.1-8.52c-3.21-2.51-6.13-4.89-9.16-7.13c-3.31-2.45-5.12-2.33-7.91,0.73
		c-2.18,2.4-4.07,5.05-5.76,7.17c2.34,2.57,4.41,5.1,6.76,7.35C101.69,137.82,103.96,138.14,105.94,136.58z"/>
	<path class="st0" d="M5.2,46.04c-1.8,1.77-3.44,3.7-5.2,5.62c1.75,2.05,3.36,4.09,5.15,5.97c2.49,2.6,4.31,2.83,7.28,0.79
		c3.21-2.2,6.28-4.62,9.64-7.11c-3.29-2.16-6.32-4.27-9.46-6.18C9.65,43.33,7.68,43.59,5.2,46.04z"/>
	<path class="st0" d="M284.56,56.02c-3.66-4.11-7.65-7.95-12.01-11.52c-18.31-15-39.75-22.79-62.99-26.06
		c-12.18-1.72-24.48-2.64-36.75-3.69c-19.24-1.64-38.51-2.65-57.84-1.99c-4.8,0.16-9.6,0.02-14.76,0.02
		c0.55,1.24,0.85,1.97,1.19,2.68c5.74,12.19,11.42,24.42,17.28,36.56c1.55,3.21,3.4,6.36,5.58,9.19c4.26,5.56,10.09,8.72,17.22,8.57
		c4.25-0.09,8.71-0.43,12.69-1.77c9.11-3.06,18.03-6.67,26.93-10.3c11.01-4.49,22.32-6.43,34.17-4.73
		c37.31,5.38,59.22,37.77,51.89,73.35c-4.68,22.71-19.27,37.65-41.54,44.57c-22.5,6.99-43.17,2.84-61.08-12.58
		c-11.07-9.53-16.76-22.05-19.71-36.03c-1.86-8.79-3.67-17.64-6.3-26.22c-3.34-10.87-10.48-18.57-21.96-21.64
		c-6.51-1.74-13.09-1.63-19.61-0.05c-5.5,1.34-9.72,4.35-11.71,9.79c-1.57,4.3-1.82,8.73-0.7,13.18
		c1.87,7.42,7.41,10.67,14.41,12.38c4.16,1.02,8.36,2.06,12.33,3.61c6.9,2.71,10.97,7.67,11.5,15.26c0.52,7.55-2.4,13.34-8.93,17.13
		c-3.42,1.99-7.2,3.41-10.89,4.91c-1.24,0.5-1.67,1.06-1.67,2.36c0.12,34.55,0.09,69.1,0.33,103.65
		c0.11,15.86,10.42,27.86,26.28,30.48c6.32,1.05,12.86,0.96,19.3,1.12c22.68,0.58,45.26-0.28,67.62-4.56
		c26.77-5.12,49-17.13,66.59-36.28c22.75-22.04,37.51-57.41,37.51-97.3C318.91,112.11,305.51,78.2,284.56,56.02z M149.4,53.38
		c-10.18-0.86-15.02-6.74-15.05-15.72c-0.02-8.36,6.78-14.76,15.32-14.71c8.25,0.05,15.77,7.02,15.74,14.6
		C165.38,46.2,157.84,54.1,149.4,53.38z M143.86,179.03c-1.8,1.05-3.67,0.08-5.01-1.32c-2.03-2.12-3.91-4.38-5.98-6.72
		c2.13-2.3,3.98-4.5,6.04-6.48c2.3-2.2,4.18-2.36,6.75-0.47c3.14,2.31,6.1,4.87,9.53,7.64
		C151.31,174.22,147.68,176.79,143.86,179.03z"/>
</g>
</svg>
