<?xml version="1.0" encoding="UTF-8"?>
<svg width="752pt" height="752pt" version="1.1" viewBox="0 0 752 752" xmlns="http://www.w3.org/2000/svg">
 <g>
  <path d="m395.73 469.73h-59.199c-2.7227 0-4.9336 2.2109-4.9336 4.9336 0 2.7227 2.2109 4.9336 4.9336 4.9336h34.531v14.801c0 2.7227 2.2109 4.9297 4.9336 4.9297 2.7266 0 4.9336-2.207 4.9336-4.9297v-14.801h14.801c8.8125 0 16.953-4.7031 21.359-12.332 4.4062-7.6328 4.4062-17.035 0-24.668-4.4062-7.6289-12.547-12.332-21.359-12.332h-39.465c-5.2891 0-10.172-2.8203-12.816-7.3984-2.6445-4.5781-2.6445-10.223 0-14.801s7.5273-7.3984 12.816-7.3984h59.195c2.7266 0 4.9336-2.2109 4.9336-4.9336 0-2.7266-2.207-4.9336-4.9336-4.9336h-34.531v-14.801c0-2.7227-2.207-4.9336-4.9336-4.9336-2.7227 0-4.9336 2.2109-4.9336 4.9336v14.801h-14.797c-8.8125 0-16.957 4.7031-21.363 12.332-4.4062 7.6328-4.4062 17.035 0 24.668 4.4062 7.6289 12.551 12.332 21.363 12.332h39.465c5.2852 0 10.172 2.8203 12.816 7.3984s2.6445 10.223 0 14.801-7.5312 7.3984-12.816 7.3984z"/>
  <path d="m272.41 435.2c0 27.477 10.914 53.824 30.344 73.254 19.426 19.426 45.777 30.34 73.25 30.34 27.477 0 53.828-10.914 73.254-30.34 19.43-19.43 30.344-45.777 30.344-73.254 0-27.477-10.914-53.824-30.344-73.254-19.426-19.426-45.777-30.344-73.254-30.344-27.473 0-53.824 10.918-73.25 30.344-19.43 19.43-30.344 45.777-30.344 73.254zm103.59-93.73c24.859 0 48.699 9.875 66.277 27.453s27.453 41.418 27.453 66.277-9.875 48.699-27.453 66.277c-17.578 17.578-41.418 27.453-66.277 27.453-24.855 0-48.699-9.875-66.277-27.453-17.574-17.578-27.449-41.418-27.449-66.277s9.875-48.699 27.449-66.277c17.578-17.578 41.422-27.453 66.277-27.453z"/>
  <path d="m533.86 410.54c-6.543 0-12.816 2.5977-17.441 7.2227-4.6289 4.625-7.2266 10.898-7.2266 17.441s2.5977 12.816 7.2266 17.441c4.625 4.625 10.898 7.2227 17.441 7.2227 6.5391 0 12.812-2.5977 17.441-7.2227 4.625-4.625 7.2227-10.898 7.2227-17.441s-2.5977-12.816-7.2227-17.441c-4.6289-4.625-10.902-7.2227-17.441-7.2227zm0 39.465c-3.9258 0-7.6914-1.5625-10.465-4.3359-2.7773-2.7773-4.3359-6.5391-4.3359-10.465s1.5586-7.6914 4.3359-10.465c2.7734-2.7773 6.5391-4.3359 10.465-4.3359 3.9219 0 7.6875 1.5586 10.465 4.3359 2.7734 2.7734 4.332 6.5391 4.332 10.465s-1.5586 7.6875-4.332 10.465c-2.7773 2.7734-6.543 4.3359-10.465 4.3359z"/>
  <path d="m237.88 380.93c11.773 0 23.066-4.6758 31.395-13.004 8.3242-8.3242 13.004-19.617 13.004-31.395 0-11.773-4.6797-23.066-13.004-31.395-8.3281-8.3242-19.621-13.004-31.395-13.004-11.777 0-23.07 4.6797-31.395 13.004-8.3281 8.3281-13.004 19.621-13.004 31.395 0 11.777 4.6758 23.07 13.004 31.395 8.3242 8.3281 19.617 13.004 31.395 13.004zm0-78.93c9.1562 0 17.941 3.6367 24.418 10.113 6.4727 6.4766 10.113 15.262 10.113 24.418 0 9.1602-3.6406 17.941-10.113 24.418-6.4766 6.4766-15.262 10.113-24.418 10.113-9.1602 0-17.941-3.6367-24.418-10.113-6.4766-6.4766-10.117-15.258-10.117-24.418 0-9.1562 3.6406-17.941 10.117-24.418 6.4766-6.4766 15.258-10.113 24.418-10.113z"/>
  <path d="m380.93 277.34v-78.93c0-2.7266-2.207-4.9336-4.9336-4.9336-2.7227 0-4.9336 2.207-4.9336 4.9336v78.93c0 2.7227 2.2109 4.9336 4.9336 4.9336 2.7266 0 4.9336-2.2109 4.9336-4.9336z"/>
  <path d="m232.94 218.14v39.465c0 2.7266 2.207 4.9336 4.9336 4.9336 2.7227 0 4.9336-2.207 4.9336-4.9336v-39.465c0-2.7227-2.2109-4.9336-4.9336-4.9336-2.7266 0-4.9336 2.2109-4.9336 4.9336z"/>
  <path d="m538.79 376v-118.39c0-2.7227-2.207-4.9336-4.9297-4.9336-2.7266 0-4.9336 2.2109-4.9336 4.9336v118.39c0 2.7266 2.207 4.9336 4.9336 4.9336 2.7227 0 4.9297-2.207 4.9297-4.9336z"/>
  <path d="m420.4 316.8v-118.39c0-2.7266-2.207-4.9336-4.9336-4.9336-2.7227 0-4.9297 2.207-4.9297 4.9336v118.39c0 2.7227 2.207 4.9336 4.9297 4.9336 2.7266 0 4.9336-2.2109 4.9336-4.9336z"/>
  <path d="m198.41 420.4h39.465c2.7227 0 4.9336-2.207 4.9336-4.9336 0-2.7227-2.2109-4.9297-4.9336-4.9297h-39.465c-2.7266 0-4.9336 2.207-4.9336 4.9297 0 2.7266 2.207 4.9336 4.9336 4.9336z"/>
  <path d="m198.41 499.33h39.465c2.7227 0 4.9336-2.207 4.9336-4.9297 0-2.7266-2.2109-4.9336-4.9336-4.9336h-39.465c-2.7266 0-4.9336 2.207-4.9336 4.9336 0 2.7227 2.207 4.9297 4.9336 4.9297z"/>
  <path d="m553.59 528.93h-39.465c-2.7227 0-4.9336 2.207-4.9336 4.9336 0 2.7227 2.2109 4.9297 4.9336 4.9297h39.465c2.7266 0 4.9336-2.207 4.9336-4.9297 0-2.7266-2.207-4.9336-4.9336-4.9336z"/>
 </g>
</svg>
