<?xml version="1.0" encoding="utf-8"?>
<!-- Generator: Adobe Illustrator 25.2.1, SVG Export Plug-In . SVG Version: 6.00 Build 0)  -->
<svg version="1.1" id="Layer_1" xmlns="http://www.w3.org/2000/svg" xmlns:xlink="http://www.w3.org/1999/xlink" x="0px" y="0px"
	 viewBox="0 0 115 111" style="enable-background:new 0 0 115 111;" xml:space="preserve">
<style type="text/css">
	.st0{fill:#FFFFFF;}
	.st1{fill:#0879A0;}
</style>
<path class="st0" d="M27.8,82.3c27.4,17.1,82.7,3.9,64.1-35C80,28,75.5,6.9,49.3,12.9C23.1,19,0.4,65.2,27.8,82.3z"/>
<g>
	<path class="st1" d="M78.1,32.6c1.1-1.2,1.7-2.7,1.3-4.4c-0.9-3.8-5.1-5.1-8.1-2.6c-4.8,4.1-9.5,8.2-14.2,12.3
		c-0.4,0.4-0.8,0.5-1.3,0.5c-6.8,0-13.5,0-20.3,0c-2.6,0-3.9,1.3-3.9,3.9c0,4,0,8,0,12.1c0,4.1,0,8.2,0,12.2c0,2.5,1.4,3.9,3.9,3.9
		c3.6,0,7.1,0,10.7,0c0.5,0,0.7,0.1,0.7,0.7c0,1.3,0,2.7,0,4.1c0,0.5-0.1,0.7-0.6,0.6c-1.2,0-2.5,0-3.7,0c-0.6,0-0.7,0.2-0.7,0.7
		c0,0.5,0.2,0.7,0.7,0.7c6.5,0,13,0,19.5,0c0.6,0,0.7-0.2,0.7-0.7c0-0.6-0.2-0.7-0.7-0.7c-1.2,0-2.4,0-3.6,0c-0.5,0-0.6-0.2-0.6-0.6
		c0-1.3,0.1-2.6,0-3.9c0-0.7,0.2-0.9,0.9-0.9c3.6,0,7.2,0,10.8,0c2.1,0,3.5-1.4,3.5-3.4c0-8.4,0-16.9,0-25.3c0-0.7-0.1-1.4-0.6-1.9
		c-0.5-0.5-0.3-0.8,0.1-1.2C74.3,36.7,76.2,34.6,78.1,32.6z M56.9,39.9c0.4-0.2,0.7-0.2,1,0.1c1.8,1.9,3.7,3.8,5.5,5.7
		c0.1,0.2,0.3,0.3,0.1,0.5c-1.1,1.3-2.3,2.4-4.2,2.4c-2,0-4-1.5-4.5-3.5C54.3,43.2,55.1,41,56.9,39.9z M59.5,39.7h9.6
		c0.1,0,0.2,0,0.4,0.1c-0.8,0.9-1.6,1.7-2.4,2.5c-0.7,0.7-1.4,1.4-2,2.2c-0.3,0.4-0.5,0.4-0.9,0C62.7,43,61.2,41.5,59.5,39.7z
		 M54,55.3c-2.3,0.7-4.7,1.2-7.1,1.8c-0.2,0-0.3,0.1-0.6,0c0.7-2.3,0.7-4.7,1.1-7.1c0.4-2.2,1.8-3.2,4-3.1c2.8,0.1,4.7,1.8,5.1,4.5
		C56.7,53.1,55.7,54.8,54,55.3z M32.9,42c0-1.4,0.8-2.3,2.1-2.3c6.5,0,13.1,0,19.6,0c0,0,0.1,0.1,0.2,0.1c-1.4,1.7-1.9,3.7-1.3,5.9
		c-0.5,0.1-1-0.1-1.5-0.2c-3.4-0.5-5.8,1.4-6.1,4.8c-0.2,2.1-0.3,4.2-0.9,6.2c-0.2,0.6-0.5,1.1-0.1,1.8c0.2,0.3,0.3,0.4,0.6,0.4
		c3.2-0.7,6.3-1.3,9.4-2.3c2-0.7,3.3-3.4,2.8-5.6c-0.1-0.3-0.2-0.6-0.2-0.9c0.1-0.1,0.3-0.1,0.4-0.1c2.3,0.5,4.2-0.1,5.8-1.8
		c2.2-2.4,4.4-4.7,6.6-7.1c0.5-0.6,0.8-0.4,1,0.2c0.1,0.4,0.2,0.7,0.2,1.1c0,7,0,14.1,0,21.1c0,0.7-0.2,0.8-0.8,0.8
		c-12.3,0-24.7,0-37,0c-0.6,0-0.8-0.1-0.8-0.8C32.9,56.2,32.9,49.1,32.9,42z M56.3,75c0,0.5-0.2,0.6-0.6,0.6c-2.3,0-4.7,0-7,0
		c-0.4,0-0.6-0.1-0.5-0.6c0-1.3,0-2.6,0-4c0-0.4,0.1-0.6,0.6-0.5c1.2,0,2.3,0,3.5,0c1.2,0,2.4,0,3.5,0c0.4,0,0.6,0.1,0.6,0.6
		C56.3,72.4,56.3,73.7,56.3,75z M71.6,66.3c0,0.2,0,0.4,0,0.6c0,1.4-0.8,2.2-2.3,2.2c-4.2,0-8.3,0-12.5,0c-7.1,0-14.1,0-21.2,0
		c-2.2,0-3.2-1.2-2.7-3.4c0.1-0.4,0.3-0.3,0.6-0.3c0.9,0,1.8,0,2.6,0h16.1c6.1,0,12.3,0,18.4,0C71.4,65.4,71.7,65.6,71.6,66.3z
		 M71.2,38c-0.4,0.4-0.7,0.5-1.3,0.5c-1.5-0.1-2.9-0.1-4.4-0.1c-2.2,0-4.5,0-6.9,0c3-2.6,5.9-5.1,8.8-7.6c1.6-1.3,3.1-2.7,4.7-4
		c1.7-1.5,3.8-1.5,5.1,0c1.4,1.4,1.3,3.5-0.2,5.1C75,33.9,73.1,36,71.2,38z"/>
	<path class="st1" d="M78.1,32.6c1.1-1.2,1.7-2.7,1.3-4.4c-0.9-3.8-5.1-5.1-8.1-2.6c-4.8,4.1-9.5,8.2-14.2,12.3
		c-0.4,0.4-0.8,0.5-1.3,0.5c-6.8,0-13.5,0-20.3,0c-2.6,0-3.9,1.3-3.9,3.9c0,4,0,8,0,12.1c0,4.1,0,8.2,0,12.2c0,2.5,1.4,3.9,3.9,3.9
		c3.6,0,7.1,0,10.7,0c0.5,0,0.7,0.1,0.7,0.7c0,1.3,0,2.7,0,4.1c0,0.5-0.1,0.7-0.6,0.6c-1.2,0-2.5,0-3.7,0c-0.6,0-0.7,0.2-0.7,0.7
		c0,0.5,0.2,0.7,0.7,0.7c6.5,0,13,0,19.5,0c0.6,0,0.7-0.2,0.7-0.7c0-0.6-0.2-0.7-0.7-0.7c-1.2,0-2.4,0-3.6,0c-0.5,0-0.6-0.2-0.6-0.6
		c0-1.3,0.1-2.6,0-3.9c0-0.7,0.2-0.9,0.9-0.9c3.6,0,7.2,0,10.8,0c2.1,0,3.5-1.4,3.5-3.4c0-8.4,0-16.9,0-25.3c0-0.7-0.1-1.4-0.6-1.9
		c-0.5-0.5-0.3-0.8,0.1-1.2C74.3,36.7,76.2,34.6,78.1,32.6z M56.9,39.9c0.4-0.2,0.7-0.2,1,0.1c1.8,1.9,3.7,3.8,5.5,5.7
		c0.1,0.2,0.3,0.3,0.1,0.5c-1.1,1.3-2.3,2.4-4.2,2.4c-2,0-4-1.5-4.5-3.5C54.3,43.2,55.1,41,56.9,39.9z M59.5,39.7h9.6
		c0.1,0,0.2,0,0.4,0.1c-0.8,0.9-1.6,1.7-2.4,2.5c-0.7,0.7-1.4,1.4-2,2.2c-0.3,0.4-0.5,0.4-0.9,0C62.7,43,61.2,41.5,59.5,39.7z
		 M54,55.3c-2.3,0.7-4.7,1.2-7.1,1.8c-0.2,0-0.3,0.1-0.6,0c0.7-2.3,0.7-4.7,1.1-7.1c0.4-2.2,1.8-3.2,4-3.1c2.8,0.1,4.7,1.8,5.1,4.5
		C56.7,53.1,55.7,54.8,54,55.3z M32.9,42c0-1.4,0.8-2.3,2.1-2.3c6.5,0,13.1,0,19.6,0c0,0,0.1,0.1,0.2,0.1c-1.4,1.7-1.9,3.7-1.3,5.9
		c-0.5,0.1-1-0.1-1.5-0.2c-3.4-0.5-5.8,1.4-6.1,4.8c-0.2,2.1-0.3,4.2-0.9,6.2c-0.2,0.6-0.5,1.1-0.1,1.8c0.2,0.3,0.3,0.4,0.6,0.4
		c3.2-0.7,6.3-1.3,9.4-2.3c2-0.7,3.3-3.4,2.8-5.6c-0.1-0.3-0.2-0.6-0.2-0.9c0.1-0.1,0.3-0.1,0.4-0.1c2.3,0.5,4.2-0.1,5.8-1.8
		c2.2-2.4,4.4-4.7,6.6-7.1c0.5-0.6,0.8-0.4,1,0.2c0.1,0.4,0.2,0.7,0.2,1.1c0,7,0,14.1,0,21.1c0,0.7-0.2,0.8-0.8,0.8
		c-12.3,0-24.7,0-37,0c-0.6,0-0.8-0.1-0.8-0.8C32.9,56.2,32.9,49.1,32.9,42z M56.3,75c0,0.5-0.2,0.6-0.6,0.6c-2.3,0-4.7,0-7,0
		c-0.4,0-0.6-0.1-0.5-0.6c0-1.3,0-2.6,0-4c0-0.4,0.1-0.6,0.6-0.5c1.2,0,2.3,0,3.5,0c1.2,0,2.4,0,3.5,0c0.4,0,0.6,0.1,0.6,0.6
		C56.3,72.4,56.3,73.7,56.3,75z M71.6,66.3c0,0.2,0,0.4,0,0.6c0,1.4-0.8,2.2-2.3,2.2c-4.2,0-8.3,0-12.5,0c-7.1,0-14.1,0-21.2,0
		c-2.2,0-3.2-1.2-2.7-3.4c0.1-0.4,0.3-0.3,0.6-0.3c0.9,0,1.8,0,2.6,0h16.1c6.1,0,12.3,0,18.4,0C71.4,65.4,71.7,65.6,71.6,66.3z
		 M71.2,38c-0.4,0.4-0.7,0.5-1.3,0.5c-1.5-0.1-2.9-0.1-4.4-0.1c-2.2,0-4.5,0-6.9,0c3-2.6,5.9-5.1,8.8-7.6c1.6-1.3,3.1-2.7,4.7-4
		c1.7-1.5,3.8-1.5,5.1,0c1.4,1.4,1.3,3.5-0.2,5.1C75,33.9,73.1,36,71.2,38z"/>
</g>
</svg>
