<?xml version="1.0" encoding="utf-8"?>
<!-- Generator: Adobe Illustrator 25.2.1, SVG Export Plug-In . SVG Version: 6.00 Build 0)  -->
<svg version="1.1" id="Layer_1" xmlns="http://www.w3.org/2000/svg" xmlns:xlink="http://www.w3.org/1999/xlink" x="0px" y="0px"
	 viewBox="0 0 115 111" style="enable-background:new 0 0 115 111;" xml:space="preserve">
<style type="text/css">
	.st0{fill:#FFFFFF;}
	.st1{fill:#0879A0;}
	.st2{fill:none;stroke:#0879A0;stroke-width:1.2153;stroke-miterlimit:10;}
	.st3{fill:none;stroke:#0879A0;stroke-width:1.2153;stroke-linecap:round;stroke-miterlimit:10;stroke-dasharray:1.6203,0,0;}
	.st4{fill:none;stroke:#0879A0;stroke-width:1.2153;stroke-linecap:round;stroke-miterlimit:10;}
	.st5{font-family:'PoorRichard-Regular';}
	.st6{font-size:9.7221px;}
</style>
<path class="st0" d="M27.8,82.3c27.4,17.1,82.7,3.9,64.1-35C80,28,75.5,6.9,49.3,12.9C23.1,19,0.4,65.2,27.8,82.3z"/>
<g>
	<path class="st2" d="M67.6,31.9v40.6c0,2.1-1.7,3.8-3.8,3.8H43.5c-2.1,0-3.8-1.7-3.8-3.8V28.2c0-2.1,1.7-3.8,3.8-3.8h17.9"/>
	<polyline class="st3" points="43.5,62 53,57.7 53,45.5 43,40.7 	"/>
	<polyline class="st2" points="43,40.7 41.7,40.1 30.4,45.2 30.4,58.3 41.9,62.8 43.5,62 	"/>
	<line class="st3" x1="43" y1="49.5" x2="53" y2="45.5"/>
	<polyline class="st2" points="30.4,45.2 41.5,50.1 43,49.5 	"/>
	<line class="st2" x1="39.8" y1="69.5" x2="67.6" y2="69.5"/>
	<path class="st2" d="M56,74.1h-6c-0.6,0-1.1-0.5-1.1-1.1v-0.1c0-0.6,0.5-1.1,1.1-1.1h6c0.6,0,1.1,0.5,1.1,1.1V73
		C57.1,73.6,56.6,74.1,56,74.1z"/>
	<polyline class="st4" points="48.5,56 56.2,63.9 77.3,63.9 	"/>
	<g>
		<line class="st4" x1="68.7" y1="58.1" x2="74.5" y2="58.1"/>
		<line class="st4" x1="72.4" y1="60.2" x2="78.2" y2="60.2"/>
		<line class="st4" x1="68.7" y1="62.2" x2="74.5" y2="62.2"/>
		<line class="st4" x1="75.8" y1="62.2" x2="76.7" y2="62.2"/>
		<line class="st4" x1="70.2" y1="60.2" x2="71.1" y2="60.2"/>
		<line class="st4" x1="75.8" y1="58.1" x2="76.7" y2="58.1"/>
	</g>
	<path class="st4" d="M66.4,31.9h12.7c1.3,0,2.3-1,2.3-2.3v-7.7c0-1.3-1-2.3-2.3-2.3H63.7c-1.3,0-2.3,1-2.3,2.3v7.7v5.7
		c0,0.2,0.2,0.2,0.3,0.1C62.5,34.3,64.4,31.9,66.4,31.9z"/>
	<text transform="matrix(1 0 0 1 64.6123 28.2144)" class="st1 st5 st6">AR</text>
</g>
</svg>
