<?xml version="1.0" encoding="utf-8"?>
<!-- Generator: Adobe Illustrator 25.2.1, SVG Export Plug-In . SVG Version: 6.00 Build 0)  -->
<svg version="1.1" id="Layer_1" xmlns="http://www.w3.org/2000/svg" xmlns:xlink="http://www.w3.org/1999/xlink" x="0px" y="0px"
	 viewBox="0 0 115 111" style="enable-background:new 0 0 115 111;" xml:space="preserve">
<style type="text/css">
	.st0{fill:#FFFFFF;}
	.st1{fill:#0879A0;}
</style>
<path class="st0" d="M27.8,82.3c27.4,17.1,82.7,3.9,64.1-35C80,28,75.5,6.9,49.3,12.9C23.1,19,0.4,65.2,27.8,82.3z"/>
<g>
	<path class="st1" d="M33.3,54.1c-0.5,0.6-0.4,0.8,0.1,1.3c1.7,1.7,3.4,3.4,5.2,5c0.1,0.1,0.3,0.2,0.6,0.5c-0.4,0.3-0.7,0.6-1.1,0.9
		c-0.3,0.2-0.4-0.2-0.5-0.3c-2.1-2.1-4.2-4.2-6.4-6.2c-0.4-0.4-0.3-0.6,0-0.9c2.1-2.5,4.1-5,6.2-7.5c0.3-0.4,0.5-0.5,0.9-0.1
		c0.3,0.3,0.8,0.4,0.3,1C36.7,49.8,35,52,33.3,54.1z"/>
	<path class="st1" d="M46.5,49.2c-0.6,0-1.2,0-1.8,0v0c-0.6,0-1.2,0-1.8,0c-0.4,0-0.5,0.1-0.5,0.5c0,3,0,5.9,0,8.9
		c0,0.6,0.3,0.5,0.6,0.5c0.4,0,0.6,0,0.6-0.5c0-1,0-1.9,0-2.9c0-0.4,0.1-0.5,0.5-0.5c0.8,0,1.6,0,2.4,0c1.7-0.1,2.8-1.3,2.8-2.9
		C49.3,50.5,48.1,49.3,46.5,49.2z M46.4,54c-0.8,0.1-1.6,0-2.4,0.1c-0.3,0-0.4-0.1-0.4-0.4c0-0.5,0-1,0-1.4h0c0-0.6-0.2-1.4,0.1-1.7
		c0.4-0.4,1.2-0.1,1.8-0.1c0.3,0,0.6,0,0.9,0c1,0.1,1.6,0.8,1.6,1.9C48,53.2,47.4,53.9,46.4,54z"/>
	<path class="st1" d="M59.1,49.7c0,1.5,0,3,0,4.5c0,1.4,0,2.9,0,4.3c0,0.5-0.2,0.5-0.6,0.5c-0.4,0-0.7,0.1-0.7-0.5
		c0.1-1.1,0-2.3,0-3.4c0-0.4-0.1-0.6-0.5-0.6c-1.5,0-3,0-4.5,0c-0.4,0-0.6,0.1-0.6,0.6c0,1.1,0,2.3,0,3.4c0,0.6-0.2,0.5-0.6,0.6
		C51.2,59,51,59,51,58.5c0-2.9,0-5.8,0-8.7c0-0.6,0.2-0.5,0.6-0.5c0.4,0,0.6,0.1,0.6,0.6c0,1.1,0,2.1,0,3.2c0,0.4,0.1,0.5,0.5,0.5
		c1.5,0,3.1,0,4.6,0c0.4,0,0.5-0.1,0.5-0.5c0-1.1,0-2.2,0-3.2c0-0.6,0.3-0.5,0.7-0.5C58.9,49.2,59.1,49.2,59.1,49.7z"/>
	<path class="st1" d="M65.3,49.2c-1.2,0-2.4,0-3.6,0c-0.4,0-0.5,0.1-0.5,0.5c0,1.5,0,2.9,0,4.4c0,1.5,0,2.9,0,4.4
		c0,0.6,0.2,0.5,0.6,0.5c0.4,0,0.6-0.1,0.6-0.6c0-0.9,0-1.8,0-2.7c0-0.5,0.1-0.6,0.6-0.6c0.7,0,1.5,0,2.2,0c1.7,0,2.9-1.3,2.9-2.9
		C68.2,50.5,67,49.2,65.3,49.2z M65.2,54c-0.8,0.1-1.5,0-2.3,0c-0.3,0-0.5-0.1-0.5-0.5c0-0.5,0-1,0-1.5c0-1.8,0-1.8,1.8-1.8
		c0.3,0,0.6,0,0.9,0c1,0.1,1.6,0.8,1.7,1.8C66.9,53.2,66.3,53.9,65.2,54z"/>
	<path class="st1" d="M76.7,53.8c0.3-0.5,0.4-0.7-0.1-1.1c-1.8-1.5-3.6-3.2-5.4-4.7c-0.5-0.5-0.7-0.8-0.1-1.2
		c0.2-0.1,0.3-0.3,0.4-0.4c2.4,2.1,4.8,4.2,7.1,6.3c0.3,0.3,0.3,0.5,0.1,0.8c-2,2.7-4,5.3-5.9,8c-0.4,0.5-0.6,0.2-0.9,0
		c-0.3-0.2-0.7-0.4-0.3-0.9C73.4,58.3,75.1,56,76.7,53.8z"/>
	<path class="st1" d="M82.8,34.5v32.6c0,1.6-0.7,2.3-2.3,2.3H30.7c-1.7,0-2.4-0.7-2.4-2.4V34.5c0-1.7,0.7-2.4,2.4-2.4
		c3.2,0,6.4,0,9.5,0c0.7,0,0.6,0.3,0.7,0.8c0,0.5,0,0.7-0.6,0.7c-3.2,0-6.4,0-9.5,0c-0.9,0-0.9,0.1-0.9,1c0,1.7,0,3.5,0,5.2
		c0,0.6,0.2,0.7,0.7,0.7c6.4,0,12.8,0,19.2,0c3.6,0,7.1,0,10.7,0c0.6,0,0.7,0.2,0.7,0.7c0,0.5,0,0.7-0.7,0.7c-9.9,0-19.8,0-29.8,0
		c-0.7,0-0.8,0.2-0.8,0.8c0,8.1,0,16.1,0,24.2c0,1.1,0,1.1,1.1,1.1h49.4c1,0,1.1,0,1.1-1.1c0-8.1,0-16.2,0-24.3
		c0-0.6-0.2-0.8-0.8-0.8c-3.3,0-6.7,0-10,0c-0.6,0-0.7-0.2-0.7-0.8c0-0.6,0.1-0.7,0.7-0.7c3.4,0,6.8,0,10.2,0c0.6,0,0.7-0.1,0.7-0.7
		c0-1.7,0-3.5,0-5.2c0-0.9-0.1-1-1-1H47.1c-0.8,0-1.1-0.6-0.8-1.3c0.1-0.1,0.2-0.2,0.3-0.2c0.2,0,0.3,0,0.5,0h33.4
		C82.1,32.2,82.8,32.9,82.8,34.5z"/>
	<path class="st1" d="M82.8,34.5v32.6c0,1.6-0.7,2.3-2.3,2.3H30.7c-1.7,0-2.4-0.7-2.4-2.4V34.5c0-1.7,0.7-2.4,2.4-2.4
		c3.2,0,6.4,0,9.5,0c0.7,0,0.6,0.3,0.7,0.8c0,0.5,0,0.7-0.6,0.7c-3.2,0-6.4,0-9.5,0c-0.9,0-0.9,0.1-0.9,1c0,1.7,0,3.5,0,5.2
		c0,0.6,0.2,0.7,0.7,0.7c6.4,0,12.8,0,19.2,0c3.6,0,7.1,0,10.7,0c0.6,0,0.7,0.2,0.7,0.7c0,0.5,0,0.7-0.7,0.7c-9.9,0-19.8,0-29.8,0
		c-0.7,0-0.8,0.2-0.8,0.8c0,8.1,0,16.1,0,24.2c0,1.1,0,1.1,1.1,1.1h49.4c1,0,1.1,0,1.1-1.1c0-8.1,0-16.2,0-24.3
		c0-0.6-0.2-0.8-0.8-0.8c-3.3,0-6.7,0-10,0c-0.6,0-0.7-0.2-0.7-0.8c0-0.6,0.1-0.7,0.7-0.7c3.4,0,6.8,0,10.2,0c0.6,0,0.7-0.1,0.7-0.7
		c0-1.7,0-3.5,0-5.2c0-0.9-0.1-1-1-1H47.1c-0.8,0-1.1-0.6-0.8-1.3c0.1-0.1,0.2-0.2,0.3-0.2c0.2,0,0.3,0,0.5,0h33.4
		C82.1,32.2,82.8,32.9,82.8,34.5z"/>
	<path class="st1" d="M59.1,58.5c0,0.5-0.2,0.5-0.6,0.5c-0.4,0-0.7,0.1-0.7-0.5c0.1-1.1,0-2.3,0-3.4c0-0.4-0.1-0.6-0.5-0.6
		c-1.5,0-3,0-4.5,0c-0.4,0-0.6,0.1-0.6,0.6c0,1.1,0,2.3,0,3.4c0,0.6-0.2,0.5-0.6,0.6C51.2,59,51,59,51,58.5c0-2.9,0-5.8,0-8.7
		c0-0.6,0.2-0.5,0.6-0.5c0.4,0,0.6,0.1,0.6,0.6c0,1.1,0,2.1,0,3.2c0,0.4,0.1,0.5,0.5,0.5c1.5,0,3.1,0,4.6,0c0.4,0,0.5-0.1,0.5-0.5
		c0-1.1,0-2.2,0-3.2c0-0.6,0.3-0.5,0.7-0.5c0.4,0,0.6,0,0.6,0.5c0,1.5,0,3,0,4.5C59.1,55.6,59.1,57.1,59.1,58.5z"/>
	<path class="st1" d="M78.8,53.4c-2,2.7-4,5.3-5.9,8c-0.4,0.5-0.6,0.2-0.9,0c-0.3-0.2-0.7-0.4-0.3-0.9c1.7-2.2,3.3-4.5,5-6.7
		c0.3-0.5,0.4-0.7-0.1-1.1c-1.8-1.5-3.6-3.2-5.4-4.7c-0.5-0.5-0.7-0.8-0.1-1.2c0.2-0.1,0.3-0.3,0.4-0.4c2.4,2.1,4.8,4.2,7.1,6.3
		C79.1,52.9,79.1,53.1,78.8,53.4z"/>
	<path class="st1" d="M39.2,60.9c-0.4,0.3-0.7,0.6-1.1,0.9c-0.3,0.2-0.4-0.2-0.5-0.3c-2.1-2.1-4.2-4.2-6.4-6.2
		c-0.4-0.4-0.3-0.6,0-0.9c2.1-2.5,4.1-5,6.2-7.5c0.3-0.4,0.5-0.5,0.9-0.1c0.3,0.3,0.8,0.4,0.3,1c-1.8,2.1-3.5,4.3-5.2,6.3
		c-0.5,0.6-0.4,0.8,0.1,1.3c1.7,1.7,3.4,3.4,5.2,5C38.7,60.5,38.8,60.7,39.2,60.9z"/>
	<path class="st1" d="M46.5,49.2c-0.6,0-1.2,0-1.8,0v0c-0.6,0-1.2,0-1.8,0c-0.4,0-0.5,0.1-0.5,0.5c0,3,0,5.9,0,8.9
		c0,0.6,0.3,0.5,0.6,0.5c0.4,0,0.6,0,0.6-0.5c0-1,0-1.9,0-2.9c0-0.4,0.1-0.5,0.5-0.5c0.8,0,1.6,0,2.4,0c1.7-0.1,2.8-1.3,2.8-2.9
		C49.3,50.5,48.1,49.3,46.5,49.2z M46.4,54c-0.8,0.1-1.6,0-2.4,0.1c-0.3,0-0.4-0.1-0.4-0.4c0-0.5,0-1,0-1.4h0c0-0.6-0.2-1.4,0.1-1.7
		c0.4-0.4,1.2-0.1,1.8-0.1c0.3,0,0.6,0,0.9,0c1,0.1,1.6,0.8,1.6,1.9C48,53.2,47.4,53.9,46.4,54z"/>
	<path class="st1" d="M65.3,49.2c-1.2,0-2.4,0-3.6,0c-0.4,0-0.5,0.1-0.5,0.5c0,1.5,0,2.9,0,4.4c0,1.5,0,2.9,0,4.4
		c0,0.6,0.2,0.5,0.6,0.5c0.4,0,0.6-0.1,0.6-0.6c0-0.9,0-1.8,0-2.7c0-0.5,0.1-0.6,0.6-0.6c0.7,0,1.5,0,2.2,0c1.7,0,2.9-1.3,2.9-2.9
		C68.2,50.5,67,49.2,65.3,49.2z M65.2,54c-0.8,0.1-1.5,0-2.3,0c-0.3,0-0.5-0.1-0.5-0.5c0-0.5,0-1,0-1.5c0-1.8,0-1.8,1.8-1.8
		c0.3,0,0.6,0,0.9,0c1,0.1,1.6,0.8,1.7,1.8C66.9,53.2,66.3,53.9,65.2,54z"/>
</g>
</svg>
