<?xml version="1.0" encoding="utf-8"?>
<!-- Generator: Adobe Illustrator 25.2.1, SVG Export Plug-In . SVG Version: 6.00 Build 0)  -->
<svg version="1.1" id="Layer_1" xmlns="http://www.w3.org/2000/svg" xmlns:xlink="http://www.w3.org/1999/xlink" x="0px" y="0px"
	 viewBox="0 0 115 111" style="enable-background:new 0 0 115 111;" xml:space="preserve">
<style type="text/css">
	.st0{fill:#FFFFFF;}
	.st1{fill:none;stroke:#0879A0;stroke-width:1.1413;stroke-miterlimit:10;}
	.st2{fill:none;stroke:#0879A0;stroke-width:1.1413;stroke-linecap:round;stroke-miterlimit:10;}
	.st3{fill:none;stroke:#0879A0;stroke-width:0.55;stroke-miterlimit:10;}
</style>
<path class="st0" d="M27.8,82.3c27.4,17.1,82.7,3.9,64.1-35C80,28,75.5,6.9,49.3,12.9C23.1,19,0.4,65.2,27.8,82.3z"/>
<g>
	<g>
		<rect x="62.4" y="42.1" class="st1" width="2" height="11.4"/>
		<line class="st2" x1="62.1" y1="42.1" x2="54.8" y2="44.7"/>
		<line class="st2" x1="54.7" y1="51.6" x2="62.2" y2="53.5"/>
		<path class="st2" d="M53.3,46v13.1c0,0.6-0.5,1-1,1h0c-0.6,0-1-0.5-1-1V51"/>
		<path class="st2" d="M53.3,50.3h-3.9c-1.5,0-2.8-1.3-2.8-2.8v0c0-1.5,1.3-2.8,2.8-2.8h3.9V50.3z"/>
	</g>
	<circle class="st1" cx="39.3" cy="64.5" r="7.3"/>
	<circle class="st1" cx="71.8" cy="64.5" r="7.3"/>
	<circle class="st1" cx="39.3" cy="37.1" r="7.3"/>
	<path class="st1" d="M64.7,35.3c0.8-3.2,3.6-5.5,7.1-5.5c4,0,7.3,3.3,7.3,7.3s-3.3,7.3-7.3,7.3"/>
	<path class="st1" d="M71.8,44.4c-4,0-7.3-3.3-7.3-7.3c0-0.6,0.1-1.2,0.2-1.8"/>
	<path class="st1" d="M71.9,44.3c0.7,1.9,1.1,4,1.1,6.1c0,2.4-0.5,4.7-1.3,6.7"/>
	<path class="st1" d="M46.2,34.9c2.6-1.5,5.7-2.4,8.9-2.4c3.5,0,6.8,1,9.6,2.8"/>
	<path class="st1" d="M38.6,57.1c-0.8-2.1-1.3-4.4-1.3-6.7c0-2.1,0.4-4.2,1-6"/>
	<path class="st1" d="M64.6,65.6c-2.7,1.7-6,2.7-9.5,2.7c-3.2,0-6.1-0.8-8.7-2.3"/>
	<polygon class="st2" points="36.7,68.3 36.7,61.1 42.4,64.7 	"/>
	<path class="st2" d="M72,67.9h-0.4c-1.9,0-3.4-1.5-3.4-3.4v0c0-1.9,1.5-3.4,3.4-3.4H72c1.9,0,3.4,1.5,3.4,3.4v0
		C75.4,66.3,73.8,67.9,72,67.9z"/>
	<circle class="st2" cx="71.8" cy="64.5" r="1.3"/>
	<path class="st2" d="M38.7,36.1c0,0,1-3.1,2.8-0.7c0,0-0.2,5.4-5.1,3.9c0,0-1.1-0.3,1.2-0.6c0,0,0.4-0.3-0.8-0.6
		c-1.2-0.3-0.6-2.9-0.6-2.9S38.4,36.7,38.7,36.1z"/>
	<path class="st3" d="M41.2,34.9c0,0,3.1-0.8,0.5,1L41.2,34.9z"/>
	<path class="st2" d="M71.3,40.4V35c0,0-0.3-1.5,2.9-1.2"/>
	<line class="st2" x1="69.6" y1="37.1" x2="73" y2="37.1"/>
</g>
</svg>
