<?xml version="1.0" encoding="utf-8"?>
<!-- Generator: Adobe Illustrator 25.2.1, SVG Export Plug-In . SVG Version: 6.00 Build 0)  -->
<svg version="1.1" id="Layer_1" xmlns="http://www.w3.org/2000/svg" xmlns:xlink="http://www.w3.org/1999/xlink" x="0px" y="0px"
	 viewBox="0 0 115 111" style="enable-background:new 0 0 115 111;" xml:space="preserve">
<style type="text/css">
	.st0{fill:#FFFFFF;}
	.st1{fill:#0879A0;}
	.st2{fill:none;stroke:#0879A0;stroke-width:1.5;stroke-miterlimit:10;}
	.st3{fill:none;stroke:#0879A0;stroke-width:1.5;stroke-linecap:round;stroke-miterlimit:10;}
</style>
<path class="st0" d="M27.8,82.3c27.4,17.1,82.7,3.9,64.1-35C80,28,75.5,6.9,49.3,12.9C23.1,19,0.4,65.2,27.8,82.3z"/>
<g>
	<path class="st2" d="M69.3,68c-0.4,0.1-0.8,0.2-1.2,0.2H35.6c-2.4,0-4.3-1.9-4.3-4.3V29.2c0-2.4,1.9-4.3,4.3-4.3h32.5
		c2.4,0,4.3,1.9,4.3,4.3v18.6"/>
	<line class="st2" x1="31.3" y1="36.2" x2="72.4" y2="36.2"/>
	<ellipse class="st2" cx="36.7" cy="30.8" rx="2.1" ry="0.6"/>
	<ellipse class="st2" cx="41.6" cy="30.8" rx="2.1" ry="0.6"/>
	<ellipse class="st2" cx="46.6" cy="30.8" rx="2.1" ry="0.6"/>
	<path class="st2" d="M67.5,30.4h-4.6c-0.2,0-0.3,0.1-0.3,0.3v0.3c0,0.2,0.1,0.3,0.3,0.3h4.6c0.2,0,0.3-0.1,0.3-0.3v-0.3
		C67.8,30.6,67.7,30.4,67.5,30.4z"/>
	<path class="st2" d="M46.2,63v-7.4c0-0.7,0.2-1.4,0.5-1.9"/>
	<line class="st2" x1="79.3" y1="55.9" x2="79.3" y2="63"/>
	<line class="st2" x1="58.9" y1="51.7" x2="67.9" y2="51.7"/>
	<path class="st2" d="M51.7,59.4c-3.3-0.7-5.4-4-4.7-7.3c0.7-3.3,4-5.4,7.3-4.7s5.4,4,4.7,7.3"/>
	<path class="st2" d="M67.5,54.3c-0.1-3.4,2.5-6.3,5.9-6.4c3.4-0.1,6.3,2.5,6.4,5.9s-2.5,6.3-5.9,6.4"/>
	<path class="st2" d="M46.2,63v8.5c0,2.8,2.3,5.1,5.1,5.1h0c2.8,0,5.1-2.3,5.1-5.1l0.3-6"/>
	<path class="st2" d="M68.9,65.6l0.1,5.9c0,2.8,2.3,5.1,5.1,5.1h0c2.8,0,5.1-2.3,5.1-5.1V63"/>
	<path class="st2" d="M56.8,65.8c0-1.3,1.1-2.4,2.4-2.4h7.3c1.3,0,2.4,1.1,2.4,2.4"/>
	<g>
		<line class="st3" x1="50.3" y1="53" x2="55.4" y2="53"/>
		<line class="st3" x1="52.8" y1="50.5" x2="52.8" y2="55.5"/>
	</g>
	<g>
		<path class="st2" d="M72.4,54.6h-1.6c-0.2,0-0.4-0.2-0.4-0.4v-0.4c0-0.2,0.2-0.4,0.4-0.4h1.6c0.2,0,0.4,0.2,0.4,0.4v0.4
			C72.7,54.4,72.6,54.6,72.4,54.6z"/>
		<path class="st2" d="M76.4,54.6h-1.6c-0.2,0-0.4-0.2-0.4-0.4v-0.4c0-0.2,0.2-0.4,0.4-0.4h1.6c0.2,0,0.4,0.2,0.4,0.4v0.4
			C76.8,54.4,76.7,54.6,76.4,54.6z"/>
	</g>
	<g>
		<path class="st2" d="M73,52.8v-1.6c0-0.2,0.2-0.4,0.4-0.4h0.4c0.2,0,0.4,0.2,0.4,0.4v1.6c0,0.2-0.2,0.4-0.4,0.4h-0.4
			C73.2,53.1,73,53,73,52.8z"/>
		<path class="st2" d="M73,56.8v-1.6c0-0.2,0.2-0.4,0.4-0.4h0.4c0.2,0,0.4,0.2,0.4,0.4v1.6c0,0.2-0.2,0.4-0.4,0.4h-0.4
			C73.2,57.2,73,57.1,73,56.8z"/>
	</g>
	<g>
		<path class="st2" d="M61.8,60.7h-1.6c-0.2,0-0.4-0.2-0.4-0.4v-0.4c0-0.2,0.2-0.4,0.4-0.4h1.6c0.2,0,0.4,0.2,0.4,0.4v0.4
			C62.2,60.6,62,60.7,61.8,60.7z"/>
		<path class="st2" d="M65.9,60.7h-1.6c-0.2,0-0.4-0.2-0.4-0.4v-0.4c0-0.2,0.2-0.4,0.4-0.4h1.6c0.2,0,0.4,0.2,0.4,0.4v0.4
			C66.3,60.6,66.1,60.7,65.9,60.7z"/>
	</g>
	<g>
		<polyline class="st3" points="38.6,41.2 35.3,45.2 38.8,48.6 		"/>
		<polyline class="st3" points="43.9,48.6 47.2,44.7 43.8,41.2 		"/>
		<line class="st3" x1="42.8" y1="40.7" x2="39.7" y2="49.1"/>
	</g>
</g>
</svg>
