<?xml version="1.0" encoding="utf-8"?>
<!-- Generator: Adobe Illustrator 25.2.1, SVG Export Plug-In . SVG Version: 6.00 Build 0)  -->
<svg version="1.1" id="Layer_1" xmlns="http://www.w3.org/2000/svg" xmlns:xlink="http://www.w3.org/1999/xlink" x="0px" y="0px"
	 viewBox="0 0 1084.89 389.08" style="enable-background:new 0 0 1084.89 389.08;" xml:space="preserve">
<style type="text/css">
	.st0{fill:#FFFFFF;}
</style>
<g>
	<path class="st0" d="M207.23,174.57c25.61,0.43,46.6-19.72,47.02-45.13c0.42-25.26-20.22-45.72-46.52-46.13
		c-26.14-0.41-46.83,19.68-47.21,45.84C160.15,153.97,180.88,174.12,207.23,174.57z"/>
	<path class="st0" d="M47.8,15.98c-11.32-0.08-19.83,8.68-19.91,20.5c-0.08,12.23,8.19,20.82,20.15,20.93
		c11.03,0.1,20.46-9.16,20.57-20.21C68.74,25.62,59.36,16.06,47.8,15.98z"/>
	<path class="st0" d="M107.98,61.36c0.08-7.95-6.1-13.39-15.21-13.41c-8.56-0.01-15.39,6.36-15.42,14.39
		c-0.04,9.64,6.34,16,16.09,16.07C102.07,78.47,107.88,71.66,107.98,61.36z"/>
	<path class="st0" d="M63.99,87.08c-1.4-0.73-2.65-1.76-3.99-2.62c-6.07-3.93-9.49-3.37-13.94,2.34c-0.88,1.13-1.68,2.38-2.23,3.7
		c-2.53,6.13,1.83,12.4,8.41,11.79c2.26-0.21,4.57-1.31,6.55-2.5c2.27-1.37,4.28-3.22,6.26-5.01c0.84-0.76,1.34-1.9,2-2.86
		c-0.21-0.1-0.41-0.2-0.62-0.29C66.95,89.34,65.86,88.06,63.99,87.08z"/>
	<path class="st0" d="M105.94,152.55c3.42-2.72,6.69-5.63,10.1-8.52c-3.21-2.51-6.13-4.89-9.16-7.13c-3.31-2.45-5.12-2.33-7.91,0.73
		c-2.18,2.4-4.07,5.05-5.76,7.17c2.34,2.57,4.41,5.1,6.76,7.35C101.69,153.8,103.96,154.12,105.94,152.55z"/>
	<path class="st0" d="M5.2,62.01c-1.8,1.77-3.44,3.7-5.2,5.62c1.75,2.05,3.36,4.09,5.15,5.97c2.49,2.6,4.31,2.83,7.28,0.79
		c3.21-2.2,6.28-4.62,9.64-7.11c-3.29-2.16-6.32-4.27-9.46-6.18C9.65,59.3,7.68,59.57,5.2,62.01z"/>
	<path class="st0" d="M465.34,267.12v31.82h60.47V0h-60.47v93.57c-0.35-0.36-0.7-0.72-1.06-1.07
		c-17.06-16.89-37.99-25.01-61.3-28.16c-4.39-0.6-8.82-0.9-13.23-1.34H377.5c-4.19,0.43-8.39,0.76-12.57,1.3
		c-24.65,3.14-45.85,13.17-63.46,30.87c-0.2,0.2-0.38,0.4-0.57,0.6c-0.06-0.16-0.13-0.32-0.22-0.49
		c-7.14-13.36-16.31-25.12-28.12-34.8c-18.31-15-39.75-22.79-62.99-26.06c-12.18-1.72-24.48-2.64-36.75-3.69
		c-19.24-1.64-38.51-2.65-57.84-1.99c-4.8,0.16-9.6,0.02-14.76,0.02c0.55,1.24,0.85,1.97,1.19,2.68
		c5.74,12.19,11.42,24.42,17.28,36.56c1.55,3.21,3.4,6.36,5.58,9.19c4.26,5.56,10.09,8.72,17.22,8.57
		c4.25-0.09,8.71-0.43,12.69-1.77c9.11-3.06,18.03-6.67,26.93-10.3c11.01-4.49,22.32-6.43,34.17-4.73
		c37.31,5.38,59.22,37.77,51.89,73.35c-4.68,22.71-19.27,37.65-41.54,44.57c-22.5,6.99-43.17,2.84-61.08-12.58
		c-11.07-9.53-16.76-22.05-19.71-36.03c-1.86-8.79-3.67-17.64-6.3-26.22c-3.34-10.87-10.48-18.57-21.96-21.64
		c-6.51-1.74-13.09-1.63-19.61-0.05c-5.5,1.34-9.72,4.35-11.71,9.79c-1.57,4.3-1.82,8.73-0.7,13.18
		c1.87,7.42,7.41,10.67,14.41,12.38c4.16,1.02,8.36,2.06,12.33,3.61c6.9,2.71,10.97,7.67,11.5,15.26c0.52,7.55-2.4,13.34-8.93,17.13
		c-3.42,1.99-7.2,3.41-10.89,4.91c-1.24,0.5-1.67,1.06-1.67,2.36c0.12,34.55,0.09,69.1,0.33,103.65
		c0.11,15.86,10.42,27.86,26.28,30.48c6.32,1.05,12.86,0.96,19.3,1.12c22.68,0.58,45.26-0.28,67.62-4.56
		c32.04-6.12,57.57-22.11,76.43-48.41c2.31,3.13,4.87,6.12,7.72,8.95c13.3,13.22,29.21,22.25,47.04,27.9
		c22.59,7.17,45.57,7.47,68.71,3.33C433.86,288.01,450.82,279.88,465.34,267.12z M491.9,221.95c-0.04,0.33-0.09,0.66-0.14,0.98
		c-0.54-0.05-0.92-0.1-1.31-0.1h-25.11c-10.73,0-21.46,0-32.19-0.03c-1.33,0-1.91,0.58-2.49,1.61
		c-5.96,10.56-14.66,17.83-26.45,21.09c-10.47,2.89-21.08,2.85-31.71,0.71c-9.6-1.94-18.17-5.99-25.3-12.69
		c-7.83-7.36-11.99-16.74-14-27.11c-0.77-4-1.11-8.09-1.7-12.49h133.84H495v-0.63c0.06,2.36-0.1,9.21-2.75,28.05
		C492.67,221.34,491.31,221.9,491.9,221.95z M432.32,146.67c0.65,2.94,0.97,5.96,1.48,9.15H333.22
		c2.22-12.69,6.46-24.12,15.78-33.25c7.02-6.87,15.55-10.44,25.13-11.72c8.72-1.18,17.42-0.95,25.91,1.6
		C417.39,117.67,428.41,128.89,432.32,146.67z"/>
	<path class="st0" d="M1080.83,151.15c-3.75-15.93-10.25-30.52-21.31-42.77c-17.14-18.92-38.42-29.33-64-30.65
		c-15.03-0.77-29.46,1.56-42.95,8.62c-11.6,6.07-20.36,15.15-27.83,25.69c-0.5,0.71-1.02,1.41-1.55,2.13l-0.48-0.22V82.56h-0.98
		v-0.41h-54.77v4.2c-1.16-0.75-2.35-1.46-3.58-2.12c-3-1.62-6.02-3.25-9.19-4.51c-12.99-5.17-26.48-6.43-40.34-4.89
		c-23.87,2.66-42.78,13.31-55.71,33.79c-0.49,0.78-1.02,1.53-1.67,2.49c-0.48-1.04-0.84-1.8-1.2-2.57
		c-7.83-16.84-20.15-28.34-38.85-32.23c-12.7-2.63-25.44-2.86-38.21-0.57c-14.54,2.6-26.97,9.05-36.41,20.58
		c-2.67,3.27-5.11,6.7-7.59,10.11V79.87h-28.53v0h-30.81h-30.81v219.07h30.81h30.81v0h18.4h10.13V155.89
		c0.27-2.77,0.67-5.52,1.18-8.24c1.84-9.9,7.5-17.09,17.01-20.93c9.66-3.9,19.69-4.45,29.73-2.26c11,2.4,17.78,9.45,20.48,20.37
		c1.7,6.87,2.13,13.86,2.13,20.89c0.01,42.28,0.01,84.56,0.01,126.83v6.39h0.19h59.04v-0.16v-4.96
		c-0.01-42.43-0.05-84.85,0.02-127.27c0.01-7.11,0.89-14.15,3.39-20.87c3.52-9.44,9.49-16.74,19.17-20.36
		c8.28-3.12,16.85-3.48,25.51-1.52c10.37,2.35,17.08,8.65,20.45,18.63c1.79,5.27,2.34,10.73,2.34,16.23
		c0.04,44.96,0.03,89.92,0.03,134.88l0.13,5.24v0.16h31.94v90.14h58.19V275.14c1.2,1.64,2.18,3.03,3.21,4.41
		c7.27,9.8,15.88,18.08,27.38,22.73c22.08,8.9,44.5,8.51,66.52,0.49c26.63-9.7,43.85-29.17,53.67-55.41
		c5.37-14.31,7.75-29.26,8.57-44.46C1085.44,185.49,1084.85,168.21,1080.83,151.15z M1015.38,234.71
		c-9.19,18.03-25.21,26.96-45.44,25.53c-16.43-1.16-29.49-7.94-38.19-22.24c-4.6-7.57-7.02-15.93-8.1-24.63
		c-2.1-17.03-1.46-33.93,3.34-50.49c2.63-9.07,7.03-17.21,14.07-23.69c9.83-9.07,21.81-11.72,34.75-11.28
		c10.18,0.34,19.69,2.85,27.74,9.47c6.94,5.72,11.06,13.38,14.4,21.49c4.52,10.99,6.32,22.5,6.21,34.35
		C1023.99,207.63,1022.02,221.65,1015.38,234.71z"/>
	<polygon class="st0" points="560.04,65.04 549.77,61.62 560.04,58.19 560.04,52.49 542.92,59.33 542.92,63.9 560.04,70.74 	"/>
	<polygon class="st0" points="597.69,59.33 580.58,52.49 580.58,58.19 590.85,61.62 580.58,65.04 580.58,70.74 597.69,63.9 	"/>
	<polygon class="st0" points="574.87,50.21 571.45,50.21 565.74,73.03 569.17,73.03 	"/>
	<polygon class="st0" points="282.42,336.4 294.74,336.4 294.74,367.88 299.82,367.88 299.82,336.4 312.15,336.4 312.15,331.93 
		282.42,331.93 	"/>
	<polygon class="st0" points="343.41,351.81 361.44,351.81 361.44,347.44 343.41,347.44 343.41,336.4 363.64,336.4 363.64,331.93 
		338.28,331.93 338.28,367.88 364.36,367.88 364.36,363.41 343.41,363.41 	"/>
	<path class="st0" d="M399.38,340c1.27-1.24,2.76-2.19,4.49-2.88c1.73-0.68,3.61-1.03,5.63-1.03c1.95,0,3.78,0.36,5.49,1.06
		c1.71,0.7,3.25,1.77,4.62,3.21l3.34-3.24c-1.65-1.85-3.64-3.24-5.98-4.18c-2.35-0.95-4.91-1.42-7.68-1.42
		c-2.74,0-5.26,0.46-7.57,1.36c-2.31,0.91-4.32,2.2-6.04,3.86c-1.71,1.66-3.04,3.6-4,5.82c-0.96,2.23-1.44,4.68-1.44,7.34
		c0,2.67,0.48,5.12,1.44,7.35c0.96,2.22,2.28,4.16,3.98,5.82c1.69,1.67,3.7,2.95,6.01,3.86c2.31,0.9,4.83,1.36,7.57,1.36
		c2.81,0,5.38-0.48,7.73-1.44c2.34-0.96,4.33-2.36,5.98-4.21l-3.34-3.24c-1.37,1.48-2.91,2.56-4.62,3.26
		c-1.71,0.71-3.54,1.06-5.49,1.06c-2.02,0-3.9-0.35-5.63-1.03c-1.73-0.68-3.22-1.64-4.49-2.88c-1.27-1.23-2.25-2.69-2.95-4.39
		c-0.7-1.69-1.05-3.53-1.05-5.52c0-1.98,0.35-3.82,1.05-5.51C397.13,342.69,398.11,341.23,399.38,340z"/>
	<polygon class="st0" points="476.6,347.39 455.96,347.39 455.96,331.93 450.83,331.93 450.83,367.88 455.96,367.88 455.96,351.86 
		476.6,351.86 476.6,367.88 481.74,367.88 481.74,331.93 476.6,331.93 	"/>
	<polygon class="st0" points="538.83,358.71 517.27,331.93 513.06,331.93 513.06,367.88 518.19,367.88 518.19,341.09 539.76,367.88 
		543.97,367.88 543.97,331.93 538.83,331.93 	"/>
	<path class="st0" d="M605.14,336.74c-1.73-1.66-3.74-2.95-6.06-3.86c-2.31-0.9-4.83-1.36-7.57-1.36c-2.77,0-5.32,0.47-7.65,1.39
		c-2.33,0.92-4.35,2.22-6.06,3.88c-1.71,1.66-3.05,3.6-4,5.82c-0.96,2.23-1.44,4.66-1.44,7.29c0,2.64,0.48,5.07,1.44,7.3
		c0.95,2.22,2.29,4.16,4,5.82c1.71,1.66,3.74,2.96,6.09,3.88c2.34,0.92,4.88,1.39,7.62,1.39s5.26-0.46,7.57-1.36
		c2.32-0.91,4.33-2.19,6.06-3.86c1.73-1.66,3.07-3.6,4.01-5.82c0.94-2.23,1.41-4.68,1.41-7.35c0-2.66-0.47-5.11-1.41-7.34
		C608.21,340.34,606.87,338.4,605.14,336.74z M604.37,355.4c-0.7,1.68-1.68,3.14-2.92,4.39c-1.25,1.25-2.72,2.22-4.42,2.9
		c-1.69,0.68-3.54,1.03-5.52,1.03c-2.02,0-3.88-0.35-5.57-1.03s-3.18-1.65-4.44-2.9c-1.27-1.25-2.25-2.71-2.95-4.39
		c-0.71-1.68-1.06-3.51-1.06-5.5c0-1.98,0.35-3.81,1.06-5.49c0.7-1.67,1.68-3.14,2.95-4.39c1.26-1.25,2.75-2.21,4.44-2.9
		c1.69-0.68,3.55-1.03,5.57-1.03c1.98,0,3.83,0.35,5.52,1.03c1.7,0.69,3.17,1.65,4.42,2.9c1.24,1.25,2.22,2.72,2.92,4.39
		c0.7,1.68,1.05,3.51,1.05,5.49C605.42,351.89,605.07,353.72,604.37,355.4z"/>
	<polygon class="st0" points="644.09,331.93 638.95,331.93 638.95,367.88 663.55,367.88 663.55,363.41 644.09,363.41 	"/>
	<path class="st0" d="M719.18,336.74c-1.73-1.66-3.75-2.95-6.06-3.86c-2.31-0.9-4.83-1.36-7.57-1.36c-2.77,0-5.33,0.47-7.65,1.39
		c-2.33,0.92-4.35,2.22-6.06,3.88c-1.71,1.66-3.05,3.6-4.01,5.82c-0.96,2.23-1.43,4.66-1.43,7.29c0,2.64,0.47,5.07,1.43,7.3
		c0.96,2.22,2.3,4.16,4.01,5.82c1.71,1.66,3.74,2.96,6.08,3.88c2.35,0.92,4.89,1.39,7.63,1.39s5.26-0.46,7.57-1.36
		c2.31-0.91,4.33-2.19,6.06-3.86c1.73-1.66,3.06-3.6,4-5.82c0.94-2.23,1.42-4.68,1.42-7.35c0-2.66-0.48-5.11-1.42-7.34
		C722.24,340.34,720.91,338.4,719.18,336.74z M718.41,355.4c-0.7,1.68-1.68,3.14-2.93,4.39s-2.72,2.22-4.41,2.9
		c-1.7,0.68-3.54,1.03-5.52,1.03c-2.02,0-3.88-0.35-5.57-1.03c-1.7-0.68-3.18-1.65-4.45-2.9c-1.26-1.25-2.25-2.71-2.95-4.39
		c-0.7-1.68-1.05-3.51-1.05-5.5c0-1.98,0.35-3.81,1.05-5.49c0.7-1.67,1.69-3.14,2.95-4.39c1.27-1.25,2.75-2.21,4.45-2.9
		c1.69-0.68,3.55-1.03,5.57-1.03c1.98,0,3.82,0.35,5.52,1.03c1.69,0.69,3.16,1.65,4.41,2.9s2.23,2.72,2.93,4.39
		c0.7,1.68,1.05,3.51,1.05,5.49C719.46,351.89,719.11,353.72,718.41,355.4z"/>
	<path class="st0" d="M759.23,340c1.28-1.24,2.8-2.19,4.57-2.88c1.76-0.68,3.67-1.03,5.72-1.03c2.02,0,3.9,0.34,5.62,1
		c1.73,0.67,3.33,1.73,4.8,3.16l3.19-3.18c-1.64-1.85-3.65-3.24-6.01-4.16c-2.36-0.92-4.96-1.39-7.8-1.39
		c-2.81,0-5.38,0.46-7.71,1.36c-2.32,0.91-4.35,2.2-6.08,3.86c-1.73,1.66-3.07,3.6-4.03,5.82c-0.96,2.23-1.44,4.68-1.44,7.34
		c0,2.67,0.48,5.12,1.44,7.35c0.96,2.22,2.29,4.16,4.01,5.82c1.71,1.67,3.73,2.95,6.05,3.86c2.33,0.9,4.88,1.36,7.65,1.36
		c2.54,0,4.99-0.39,7.37-1.16c2.38-0.77,4.46-1.91,6.24-3.41V349.7h-4.93v11.69c-0.92,0.61-1.89,1.09-2.9,1.43
		c-1.76,0.6-3.6,0.9-5.52,0.9c-2.05,0-3.95-0.35-5.7-1.03c-1.74-0.68-3.26-1.65-4.54-2.9c-1.29-1.25-2.28-2.72-2.98-4.42
		c-0.7-1.69-1.05-3.51-1.05-5.47c0-1.98,0.35-3.82,1.05-5.51C756.95,342.69,757.94,341.23,759.23,340z"/>
	<polygon class="st0" points="824.56,350.9 813.06,331.93 807.57,331.93 821.84,355.36 821.84,367.88 826.92,367.88 826.92,355.44 
		841.2,331.93 836.11,331.93 	"/>
</g>
</svg>
