<?xml version="1.0" encoding="utf-8"?>
<!-- Generator: Adobe Illustrator 25.2.1, SVG Export Plug-In . SVG Version: 6.00 Build 0)  -->
<svg version="1.1" id="Layer_1" xmlns="http://www.w3.org/2000/svg" xmlns:xlink="http://www.w3.org/1999/xlink" x="0px" y="0px"
	 viewBox="0 0 318.9 288.4" style="enable-background:new 0 0 318.9 288.4;" xml:space="preserve">
<g>
	<defs>
		<path id="SVGID_1_" d="M207.2,158.6c25.6,0.4,46.6-19.7,47-45.1c0.4-25.3-20.2-45.7-46.5-46.1c-26.1-0.4-46.8,19.7-47.2,45.8
			C160.1,138,180.9,158.2,207.2,158.6z M47.8,0C36.5-0.1,28,8.7,27.9,20.5C27.8,32.7,36.1,41.3,48,41.4c11,0.1,20.5-9.2,20.6-20.2
			C68.7,9.7,59.4,0.1,47.8,0z M108,45.4c0.1-8-6.1-13.4-15.2-13.4c-8.6,0-15.4,6.4-15.4,14.4c0,9.6,6.3,16,16.1,16.1
			C102.1,62.5,107.9,55.7,108,45.4z M64,71.1c-1.4-0.7-2.7-1.8-4-2.6c-6.1-3.9-9.5-3.4-13.9,2.3c-0.9,1.1-1.7,2.4-2.2,3.7
			c-2.5,6.1,1.8,12.4,8.4,11.8c2.3-0.2,4.6-1.3,6.5-2.5c2.3-1.4,4.3-3.2,6.3-5c0.8-0.8,1.3-1.9,2-2.9c-0.2-0.1-0.4-0.2-0.6-0.3
			C66.9,73.4,65.9,72.1,64,71.1z M105.9,136.6c3.4-2.7,6.7-5.6,10.1-8.5c-3.2-2.5-6.1-4.9-9.2-7.1c-3.3-2.4-5.1-2.3-7.9,0.7
			c-2.2,2.4-4.1,5.1-5.8,7.2c2.3,2.6,4.4,5.1,6.8,7.4C101.7,137.8,104,138.1,105.9,136.6z M5.2,46c-1.8,1.8-3.4,3.7-5.2,5.6
			c1.8,2,3.4,4.1,5.2,6c2.5,2.6,4.3,2.8,7.3,0.8c3.2-2.2,6.3-4.6,9.6-7.1c-3.3-2.2-6.3-4.3-9.5-6.2C9.6,43.3,7.7,43.6,5.2,46z
			 M284.6,56c-3.7-4.1-7.6-8-12-11.5c-18.3-15-39.8-22.8-63-26.1c-12.2-1.7-24.5-2.6-36.8-3.7c-19.2-1.6-38.5-2.6-57.8-2
			c-4.8,0.2-9.6,0-14.8,0c0.6,1.2,0.8,2,1.2,2.7c5.7,12.2,11.4,24.4,17.3,36.6c1.6,3.2,3.4,6.4,5.6,9.2c4.3,5.6,10.1,8.7,17.2,8.6
			c4.2-0.1,8.7-0.4,12.7-1.8c9.1-3.1,18-6.7,26.9-10.3c11-4.5,22.3-6.4,34.2-4.7c37.3,5.4,59.2,37.8,51.9,73.3
			c-4.7,22.7-19.3,37.7-41.5,44.6c-22.5,7-43.2,2.8-61.1-12.6c-11.1-9.5-16.8-22.1-19.7-36c-1.9-8.8-3.7-17.6-6.3-26.2
			c-3.3-10.9-10.5-18.6-22-21.6c-6.5-1.7-13.1-1.6-19.6-0.1c-5.5,1.3-9.7,4.3-11.7,9.8c-1.6,4.3-1.8,8.7-0.7,13.2
			c1.9,7.4,7.4,10.7,14.4,12.4c4.2,1,8.4,2.1,12.3,3.6c6.9,2.7,11,7.7,11.5,15.3c0.5,7.6-2.4,13.3-8.9,17.1c-3.4,2-7.2,3.4-10.9,4.9
			c-1.2,0.5-1.7,1.1-1.7,2.4c0.1,34.6,0.1,69.1,0.3,103.6c0.1,15.9,10.4,27.9,26.3,30.5c6.3,1,12.9,1,19.3,1.1
			c22.7,0.6,45.3-0.3,67.6-4.6c26.8-5.1,49-17.1,66.6-36.3c22.8-22,37.5-57.4,37.5-97.3C318.9,112.1,305.5,78.2,284.6,56z
			 M149.4,53.4c-10.2-0.9-15-6.7-15.1-15.7c0-8.4,6.8-14.8,15.3-14.7c8.2,0,15.8,7,15.7,14.6C165.4,46.2,157.8,54.1,149.4,53.4z
			 M143.9,179c-1.8,1.1-3.7,0.1-5-1.3c-2-2.1-3.9-4.4-6-6.7c2.1-2.3,4-4.5,6-6.5c2.3-2.2,4.2-2.4,6.8-0.5c3.1,2.3,6.1,4.9,9.5,7.6
			C151.3,174.2,147.7,176.8,143.9,179z"/>
	</defs>
	<clipPath id="SVGID_2_">
		<use xlink:href="#SVGID_1_"  style="overflow:visible;"/>
	</clipPath>
	<g transform="matrix(1 0 0 1 0 -4.768372e-07)" style="clip-path:url(#SVGID_2_);">
		
			<image style="overflow:visible;" width="7360" height="4912" xlink:href="C:\Users\rameez\Downloads\human-hand-inserting-coin-piggybank.jpg"  transform="matrix(6.175219e-02 0 0 6.175219e-02 -89.2084 -7.95)">
		</image>
	</g>
</g>
</svg>
